# xmcd CD database file
#
# Track frame offsets:
#	150
#	20389
#	35343
#	68943
#	89930
#	116452
#	134714
#	163039
#	191207
#	209465
#	231943
#	253455
#	274160
#
# Disc length: 3887 seconds
#
# Revision: 0
# Processed by: cddbd v1.5.1PL0 Copyright (c) Steve Scherf et al.
# Submitted via: CDex 1.51
#
DISCID=cf0f2d0d
DTITLE=John Adams - with you in mind
DYEAR=2001
DGENRE=Jazz
TTITLE0=The Jody Grind
TTITLE1=Fields of Gold
TTITLE2=Chameleon
TTITLE3=My Refuge
TTITLE4=Two by the Window
TTITLE5=Moonlight in Vermont
TTITLE6=Fire and Rain
TTITLE7=Nature Boy
TTITLE8=Theme from 'On Golden Pond'
TTITLE9=Yesterday
TTITLE10=With You In Mind
TTITLE11=Little Sunflower
TTITLE12=Invention #4 - Refuge (reprise)
EXTD=YEAR: 2001
EXTT0=
EXTT1=
EXTT2=
EXTT3=
EXTT4=
EXTT5=
EXTT6=
EXTT7=
EXTT8=
EXTT9=
EXTT10=
EXTT11=
EXTT12=
PLAYORDER=
